<svg width="40" height="40" viewBox="0 0 40 40" fill="none" xmlns="http://www.w3.org/2000/svg">
<path d="M30.5506 16.2145V15.1455C30.548 9.54063 25.8259 5 19.9981 5C14.173 5 9.45089 9.54063 9.44755 15.1455V16.2145C8.05372 16.4708 7 17.6429 7 19.0575V32.1017C7 33.7019 8.35001 35 10.0145 35H29.9859C31.65 35 33 33.7019 33 32.1017V19.0575C33 17.6426 31.9448 16.469 30.5506 16.2145ZM26.0249 16.1588H13.9706V15.1455C13.9769 11.9423 16.6688 9.35105 19.9981 9.34784C23.3279 9.35105 26.0212 11.9427 26.0246 15.1455V16.1588H26.0249Z" fill="#CF933A"/>
</svg>
