<svg width="92" height="92" viewBox="0 0 92 92" fill="none" xmlns="http://www.w3.org/2000/svg">
<rect width="92" height="92" fill="#222222"/>
<path d="M45.3851 84.0061C45.3851 75.5576 41.2015 67.4118 39.5881 64.9858C38.6197 63.5387 38.2952 61.7318 38.1945 60.4694C38.1674 60.127 38.0415 59.801 37.8285 59.5282C35.3503 56.3535 27.4402 45.063 29.6782 33.0945C30.2273 30.8774 32.0615 29.3161 34.3828 27.338C35.4946 26.391 36.7545 25.3182 38.0396 24.0356C40.9845 21.0882 44.8941 20.7467 47.5805 20.7467C49.5793 20.7467 53.7445 20.7467 56.9073 23.9021C64.7816 31.7663 67.404 38.8151 67.5125 39.1111C67.5425 39.1972 68.0238 40.6724 68.0238 43.1768C68.0238 46.9919 65.0934 52.995 62.1852 57.2521C61.3349 58.4323 60.0469 58.9778 58.912 59.4625C57.7043 59.9713 56.9587 60.3205 56.824 60.9773C56.612 61.9485 56.4822 62.6875 56.3737 63.2892C55.906 65.9212 55.7326 66.3759 52.7964 69.4635C49.372 73.0619 47.2919 81.3315 47.2919 84.0061C47.2919 84.011 47.289 84.0139 47.289 84.0187V92H92C92 78.918 87.0707 67.436 85.6985 64.6908C84.3224 61.9407 81.0384 59.0862 78.1806 57.4978C75.3238 55.9124 68.4422 54.328 68.4422 54.328L68.3841 54.3231C70.8681 49.5852 71.7 44.3501 71.7 41.3814C71.7 37.7037 70.043 34.8521 69.1588 33.0722C68.6165 31.9956 67.9851 30.0532 67.5687 28.6903C66.5896 24.0404 64.2228 14.2531 60.8953 10.1121C58.82 7.53416 52.6821 6 47.7093 6C42.7306 6 39.3944 6.87639 37.0528 9.21632C31.0679 15.1943 26.9773 28.9186 26.9773 28.9186C26.9773 28.9186 24.0033 33.8151 24.0033 38.0829C24.0033 43.6159 25.7038 47.9717 27.9389 51.3148L27.8557 51.309C27.8557 51.309 18.3274 53.2755 14.5157 55.2827C10.7059 57.2928 8.51242 59.2516 7.42488 61.0992C6.36737 62.8984 0 80.1301 0 92H45.3851V84.0061Z" fill="#F0FFFF"/>
</svg>
