<svg width="40" height="40" viewBox="0 0 40 40" fill="none" xmlns="http://www.w3.org/2000/svg">
<path fill-rule="evenodd" clip-rule="evenodd" d="M11.0543 11.1747C11.6365 10.5961 12.5805 10.5961 13.1628 11.1747L28.9457 26.8573C29.528 27.4359 29.528 28.3739 28.9457 28.9524C28.3635 29.531 27.4195 29.531 26.8372 28.9524L11.0543 13.2698C10.472 12.6912 10.472 11.7532 11.0543 11.1747Z" fill="#5A3A3A"/>
<path fill-rule="evenodd" clip-rule="evenodd" d="M11.0543 28.8253C10.472 28.2468 10.472 27.3088 11.0543 26.7302L26.8372 11.0476C27.4195 10.469 28.3635 10.469 28.9457 11.0476C29.528 11.6261 29.528 12.5641 28.9457 13.1427L13.1628 28.8253C12.5805 29.4039 11.6365 29.4039 11.0543 28.8253Z" fill="#5A3A3A"/>
</svg>
